<svg width="1400" height="900" viewBox="0 0 1400 900" fill="none" xmlns="http://www.w3.org/2000/svg">
<defs>
  <linearGradient id="g" x1="0" y1="0" x2="1400" y2="900" gradientUnits="userSpaceOnUse">
    <stop stop-color="#0f172a"/><stop offset="1" stop-color="#312e81"/>
  </linearGradient>
  <radialGradient id="r" cx="0" cy="0" r="1" gradientUnits="userSpaceOnUse" gradientTransform="translate(1020 210) rotate(120) scale(700 500)">
    <stop stop-color="#a78bfa" stop-opacity=".45"/><stop offset="1" stop-color="#a78bfa" stop-opacity="0"/>
  </radialGradient>
</defs>
<rect width="1400" height="900" fill="url(#g)"/>
<rect width="1400" height="900" fill="url(#r)"/>
<g opacity=".18" stroke="white" stroke-width="2">
  <path d="M120 180H1280M120 300H1280M120 420H1280M120 540H1280M120 660H1280"/>
  <path d="M220 100V800M440 100V800M660 100V800M880 100V800M1100 100V800"/>
</g>
<g transform="translate(130 160)"><rect x="0" y="0" width="570" height="320" rx="40" fill="white" opacity=".10"/><text x="75" y="150" fill="white" font-family="Arial" font-size="96" font-weight="800">Hola</text><text x="270" y="235" fill="#a78bfa" font-family="Arial" font-size="68" font-weight="800">Bonjour</text><path d="M72 235H220" stroke="white" stroke-opacity=".45" stroke-width="18" stroke-linecap="round"/><circle cx="475" cy="100" r="48" fill="#a78bfa" opacity=".85"/></g>
<text x="130" y="650" fill="white" font-family="Arial, Helvetica, sans-serif" font-size="86" font-weight="800" letter-spacing="-3">LanguageLab</text>
<text x="135" y="720" fill="white" opacity=".78" font-family="Arial, Helvetica, sans-serif" font-size="34" font-weight="600">Interactive learning app</text>
<rect x="130" y="760" width="350" height="10" rx="5" fill="#a78bfa"/>
</svg>